<?xml version="1.0" encoding="utf-8"?>
<!-- Generator: Adobe Illustrator 18.1.1, SVG Export Plug-In . SVG Version: 6.00 Build 0)  -->
<!DOCTYPE svg PUBLIC "-//W3C//DTD SVG 1.1//EN" "http://www.w3.org/Graphics/SVG/1.1/DTD/svg11.dtd">
<svg version="1.1" id="US_UK_Download_on_the" xmlns="http://www.w3.org/2000/svg" xmlns:xlink="http://www.w3.org/1999/xlink"
	 x="0px" y="0px" viewBox="20 29 135 40" enable-background="new 20 29 135 40" xml:space="preserve">
<path d="M149,69H26c-3.3,0-6-2.7-6-6V35c0-3.3,2.7-6,6-6h123c3.3,0,6,2.7,6,6v28C155,66.3,152.3,69,149,69z"/>
<g>
	<g>
		<path fill="#FFFFFF" d="M55.9,60.9c0,2.2-1.8,4-4,4H28c-2.2,0-4-1.8-4-4V37.1c0-2.2,1.8-4,4-4h23.8c2.2,0,4,1.8,4,4V60.9z"/>
		<linearGradient id="SVGID_1_" gradientUnits="userSpaceOnUse" x1="40.0156" y1="43.4381" x2="40.0156" y2="65">
			<stop  offset="0" style="stop-color:#F89E3A"/>
			<stop  offset="1" style="stop-color:#C56A23"/>
		</linearGradient>
		<path fill="url(#SVGID_1_)" d="M56,61c0,2.2-1.8,4-4,4H28.1c-2.2,0-4-1.8-4-4V43.4c0,0,6.8,1.2,16,1.1c8.6-0.1,16-1.1,16-1.1V61z"
			/>
		<path fill="#231F20" d="M51.9,65H28.1c-2.2,0-4.1-1.8-4.1-4.1V37.1c0-2.2,1.8-4.1,4.1-4.1h23.8c2.2,0,4.1,1.8,4.1,4.1v23.8
			C56,63.1,54.2,65,51.9,65z M28.1,33.1c-2.2,0-4,1.8-4,4v23.8c0,2.2,1.8,4,4,4h23.8c2.2,0,4-1.8,4-4V37.1c0-2.2-1.8-4-4-4H28.1z"/>
		<path fill-rule="evenodd" clip-rule="evenodd" fill="#231F20" d="M42.7,41.4c-1.3,1-3.2,1.5-4.8,1.5c-2.3,0-4.3-0.9-5.9-2.3
			c-0.1-0.1,0-0.3,0.1-0.2c1.7,1,3.7,1.6,5.9,1.6c1.4,0,3-0.3,4.5-0.9C42.8,41,42.9,41.2,42.7,41.4z"/>
		<path fill-rule="evenodd" clip-rule="evenodd" fill="#231F20" d="M43.3,40.8c-0.2-0.2-1.1-0.1-1.5-0.1c-0.1,0-0.1-0.1,0-0.2
			c0.7-0.5,2-0.4,2.1-0.2c0.1,0.2,0,1.4-0.7,2c-0.1,0.1-0.2,0-0.2-0.1C43.1,41.9,43.4,41,43.3,40.8z"/>
		<path fill-rule="evenodd" clip-rule="evenodd" fill="#231F20" d="M41.7,36.7v-0.5c0-0.1,0.1-0.1,0.1-0.1h2.3
			c0.1,0,0.1,0.1,0.1,0.1l0,0.4c0,0.1-0.1,0.2-0.2,0.3l-1.2,1.7c0.4,0,0.9,0.1,1.3,0.3c0.1,0.1,0.1,0.1,0.1,0.2v0.6
			c0,0.1-0.1,0.2-0.2,0.1c-0.7-0.4-1.6-0.4-2.4,0c-0.1,0-0.2,0-0.2-0.1v-0.5c0-0.1,0-0.2,0.1-0.4l1.4-2h-1.2
			C41.8,36.9,41.7,36.8,41.7,36.7z"/>
		<path fill-rule="evenodd" clip-rule="evenodd" fill="#231F20" d="M33.5,40h-0.7c-0.1,0-0.1-0.1-0.1-0.1l0-3.7
			c0-0.1,0.1-0.1,0.1-0.1l0.6,0c0.1,0,0.1,0.1,0.1,0.1v0.5h0c0.2-0.5,0.5-0.7,0.9-0.7c0.4,0,0.7,0.2,0.9,0.7c0.2-0.5,0.6-0.7,1-0.7
			c0.3,0,0.6,0.1,0.8,0.4c0.2,0.3,0.2,0.8,0.2,1.1l0,2.3c0,0.1-0.1,0.1-0.1,0.1h-0.7c-0.1,0-0.1-0.1-0.1-0.1v-1.9c0-0.2,0-0.5,0-0.7
			c-0.1-0.2-0.2-0.3-0.4-0.3c-0.2,0-0.3,0.1-0.4,0.3c-0.1,0.2-0.1,0.5-0.1,0.7v1.9c0,0.1-0.1,0.1-0.1,0.1h-0.7
			c-0.1,0-0.1-0.1-0.1-0.1l0-1.9c0-0.4,0.1-1-0.4-1c-0.5,0-0.5,0.6-0.5,1l0,1.9C33.6,39.9,33.5,40,33.5,40z"/>
		<path fill-rule="evenodd" clip-rule="evenodd" fill="#231F20" d="M46.2,36c1,0,1.6,0.9,1.6,2.1c0,1.1-0.6,2-1.6,2
			c-1,0-1.6-0.9-1.6-2C44.6,36.9,45.1,36,46.2,36z M46.2,36.8c-0.5,0-0.5,0.7-0.5,1.2c0,0.4,0,1.4,0.5,1.4c0.5,0,0.6-0.8,0.6-1.2
			c0-0.3,0-0.7-0.1-1C46.5,36.9,46.4,36.8,46.2,36.8z"/>
		<path fill-rule="evenodd" clip-rule="evenodd" fill="#231F20" d="M49.1,40h-0.7c-0.1,0-0.1-0.1-0.1-0.1l0-3.7
			c0-0.1,0.1-0.1,0.1-0.1l0.6,0c0.1,0,0.1,0,0.1,0.1v0.6h0c0.2-0.5,0.5-0.7,0.9-0.7c0.3,0,0.6,0.1,0.8,0.4c0.2,0.3,0.2,0.8,0.2,1.1
			v2.3C51.1,40,51,40,51,40h-0.7c-0.1,0-0.1-0.1-0.1-0.1v-2c0-0.4,0-1-0.4-1c-0.2,0-0.3,0.1-0.4,0.3c-0.1,0.2-0.1,0.4-0.1,0.7v2
			C49.2,39.9,49.1,40,49.1,40z"/>
		<path fill-rule="evenodd" clip-rule="evenodd" fill="#231F20" d="M40,38.3c0,0.3,0,0.5-0.1,0.8c-0.1,0.2-0.3,0.3-0.5,0.3
			c-0.3,0-0.4-0.2-0.4-0.5c0-0.6,0.5-0.7,1-0.7V38.3z M40.7,40c0,0-0.1,0-0.2,0c-0.2-0.2-0.3-0.3-0.4-0.5c-0.4,0.4-0.7,0.5-1.1,0.5
			c-0.6,0-1-0.4-1-1.1c0-0.6,0.3-1,0.7-1.2c0.4-0.2,0.9-0.2,1.3-0.2v-0.1c0-0.2,0-0.4-0.1-0.5c-0.1-0.1-0.2-0.2-0.4-0.2
			c-0.3,0-0.5,0.1-0.6,0.4c0,0.1-0.1,0.1-0.1,0.1l-0.7-0.1c-0.1,0-0.1-0.1-0.1-0.1c0.2-0.8,0.9-1.1,1.6-1.1c0.3,0,0.8,0.1,1,0.4
			c0.3,0.3,0.3,0.8,0.3,1.2v1.1c0,0.3,0.1,0.5,0.3,0.7c0,0.1,0.1,0.1,0,0.2C41,39.6,40.8,39.9,40.7,40L40.7,40z"/>
		<path fill-rule="evenodd" clip-rule="evenodd" fill="#231F20" d="M30.9,38.3c0,0.3,0,0.5-0.1,0.8c-0.1,0.2-0.3,0.3-0.5,0.3
			c-0.3,0-0.4-0.2-0.4-0.5c0-0.6,0.5-0.7,1-0.7V38.3z M31.6,40c0,0-0.1,0-0.2,0c-0.2-0.2-0.3-0.3-0.4-0.5c-0.4,0.4-0.7,0.5-1.1,0.5
			c-0.6,0-1-0.4-1-1.1c0-0.6,0.3-1,0.7-1.2c0.4-0.2,0.9-0.2,1.3-0.2v-0.1c0-0.2,0-0.4-0.1-0.5c-0.1-0.1-0.2-0.2-0.4-0.2
			c-0.3,0-0.5,0.1-0.6,0.4c0,0.1-0.1,0.1-0.1,0.1l-0.7-0.1c-0.1,0-0.1-0.1-0.1-0.1c0.2-0.8,0.9-1.1,1.6-1.1c0.3,0,0.8,0.1,1,0.4
			c0.3,0.3,0.3,0.8,0.3,1.2v1.1c0,0.3,0.1,0.5,0.3,0.7c0,0.1,0.1,0.1,0,0.2C32,39.6,31.8,39.9,31.6,40L31.6,40z"/>
		<circle fill="#182B72" cx="31" cy="53.6" r="5.6"/>
		<path fill="#FFFFFF" d="M31.3,51.4H30v5c0,0-0.1,0.1-0.2-0.1c-0.1-0.1-1.7-2.4-1.7-2.4s-0.3-0.3-0.6-0.2c-0.4,0.1-0.5,0.4-0.3,0.7
			c0.2,0.3,1.4,3.2,3,4c1.1,0.6,2.4,0.4,3.2,0c0.7-0.3,1.7-1.1,1.8-2.1c0.1-1,0-2,0-2h-0.7v1.3H34v-1.8h-0.8v1.5h-0.5v-2h-0.9v1.9
			h-0.4L31.3,51.4z"/>
		<rect x="27.6" y="51.4" fill="#FFFFFF" width="1.1" height="0.7"/>
		<rect x="32.7" y="51.4" fill="#FFFFFF" width="1.1" height="0.7"/>
		<rect x="30.1" y="48.9" fill="#FFFFFF" width="1.2" height="1.3"/>
		<polygon fill="#FFFFFF" points="29,50.9 29.5,50.4 28.7,49.6 28.2,50.1 		"/>
		<polygon fill="#FFFFFF" points="32.4,50.7 32,50.2 32.9,49.6 33.2,50.1 		"/>
		<g>
			<g>
				<path fill="#FFFFFF" d="M38.5,51.1c0.3-0.2,0.7-0.4,1.4-0.4c1.4,0,1.7,0.8,1.7,2v2.2c0,0.4,0,0.7,0,0.9h-0.9c0-0.2,0-0.4,0-0.7
					h0c-0.3,0.4-0.6,0.8-1.2,0.8c-0.7,0-1.3-0.5-1.3-1.5c0-1.4,1-1.7,2.3-1.7h0.2v-0.2c0-0.5-0.2-0.9-0.8-0.9c-0.5,0-1,0.3-1.2,0.5
					L38.5,51.1z M40.5,53.3L40.5,53.3c-1,0-1.5,0.2-1.5,0.9c0,0.5,0.3,0.8,0.7,0.8c0.6,0,0.9-0.5,0.9-1.4V53.3z"/>
				<path fill="#FFFFFF" d="M39.3,55.9c-0.7,0-1.3-0.5-1.3-1.5c0-1.5,1.2-1.7,2.3-1.7h0.2v-0.2c0-0.3-0.1-0.9-0.8-0.9
					c-0.5,0-1,0.3-1.2,0.5c0,0,0,0,0,0c0,0,0,0,0,0l-0.1-1c0,0,0,0,0,0c0.3-0.1,0.7-0.4,1.4-0.4c1.4,0,1.7,0.8,1.7,2v2.2
					c0,0.1,0,0.3,0,0.4c0,0.2,0,0.4,0,0.5c0,0,0,0,0,0c0,0,0,0,0,0h-0.9c0,0,0,0,0,0c0-0.1,0-0.3,0-0.4c0-0.1,0-0.1,0-0.2
					C40.3,55.5,40,55.9,39.3,55.9z M40.3,52.7c-1.6,0-2.3,0.5-2.3,1.7c0,0.9,0.6,1.4,1.3,1.4c0.6,0,0.9-0.4,1.2-0.7c0,0,0,0,0,0h0
					c0,0,0,0,0,0c0,0.1,0,0.2,0,0.2c0,0.1,0,0.3,0,0.4h0.9c0-0.1,0-0.3,0-0.5c0-0.1,0-0.2,0-0.4v-2.2c0-1.2-0.3-2-1.6-2
					c-0.7,0-1.1,0.2-1.3,0.4l0.1,0.9c0.2-0.2,0.7-0.4,1.2-0.4c0.5,0,0.8,0.4,0.8,1v0.2c0,0,0,0,0,0H40.3z M39.7,55.1
					c-0.4,0-0.7-0.3-0.7-0.8c0-0.7,0.4-1,1.5-1h0.1c0,0,0,0,0,0v0.3C40.6,54.6,40.3,55.1,39.7,55.1z M40.4,53.4
					c-1,0-1.4,0.3-1.4,0.9c0,0.4,0.2,0.7,0.6,0.7c0.6,0,0.8-0.4,0.8-1.4L40.4,53.4L40.4,53.4z"/>
			</g>
			<g>
				<path fill="#FFFFFF" d="M42.5,51.7c0-0.4,0-0.6,0-0.8l0.9,0c0,0.2,0,0.2,0,0.5h0c0.2-0.4,0.5-0.6,1.2-0.6c1.1,0,1.6,1.2,1.6,2.6
					c0,1.6-0.6,2.4-1.6,2.4c-0.6,0-1-0.1-1.1-0.5h0v2.4h-1V51.7z M44.4,54.8c0.6,0,0.9-0.5,0.9-1.5c0-1.1-0.3-1.7-0.9-1.7
					c-0.6,0-0.8,0.7-0.8,1.6C43.5,54.2,43.8,54.8,44.4,54.8z"/>
				<path fill="#FFFFFF" d="M43.5,57.6h-1c0,0,0,0,0,0v-6c0-0.2,0-0.4,0-0.5c0-0.1,0-0.2,0-0.3c0,0,0,0,0,0c0,0,0,0,0,0l0,0l0.9,0
					c0,0,0,0,0,0c0,0.1,0,0.1,0,0.3c0,0,0,0.1,0,0.2c0.2-0.4,0.6-0.5,1.2-0.5c1,0,1.6,1,1.6,2.6s-0.6,2.5-1.6,2.5
					c-0.6,0-0.9-0.1-1.1-0.4L43.5,57.6C43.6,57.6,43.6,57.6,43.5,57.6z M42.5,57.6h1v-2.3c0,0,0,0,0,0h0c0,0,0,0,0,0
					c0.1,0.3,0.4,0.5,1.1,0.5c1,0,1.5-0.9,1.5-2.4c0-1.2-0.4-2.5-1.6-2.5c-0.7,0-1,0.2-1.2,0.6c0,0,0,0,0,0h0c0,0,0,0,0,0
					c0-0.1,0-0.2,0-0.3c0-0.1,0-0.1,0-0.2l-0.9,0c0,0.1,0,0.2,0,0.3c0,0.2,0,0.3,0,0.5V57.6z M44.4,54.9c-0.6,0-0.8-0.6-0.8-1.6
					c0-1.1,0.3-1.7,0.9-1.7c0.6,0,0.9,0.6,0.9,1.8C45.3,54.3,45,54.9,44.4,54.9z M44.4,51.6c-0.5,0-0.8,0.5-0.8,1.6
					c0,0.7,0.1,1.6,0.8,1.6c0.6,0,0.9-0.5,0.9-1.5C45.2,52.2,45,51.6,44.4,51.6z"/>
			</g>
			<g>
				<path fill="#FFFFFF" d="M51.3,54.4c0.2,0.1,0.6,0.4,1.1,0.4c0.4,0,0.7-0.1,0.7-0.5c0-0.2-0.1-0.4-0.5-0.6l-0.6-0.4
					c-0.5-0.3-0.8-0.5-0.8-1.2c0-0.8,0.6-1.4,1.6-1.4c0.6,0,1,0.2,1.1,0.2l-0.1,0.9c-0.3-0.1-0.6-0.2-1-0.2c-0.4,0-0.6,0.2-0.6,0.5
					c0,0.3,0.1,0.4,0.4,0.6l0.8,0.4c0.6,0.3,0.8,0.8,0.8,1.3c0,0.9-0.6,1.5-1.6,1.5c-0.6,0-1.2-0.2-1.4-0.3L51.3,54.4z"/>
				<path fill="#FFFFFF" d="M52.7,55.8c-0.6,0-1.3-0.2-1.4-0.3c0,0,0,0,0,0l0.1-1c0,0,0,0,0,0c0,0,0,0,0,0c0,0,0.1,0,0.1,0.1
					c0.2,0.1,0.6,0.3,1,0.3c0.5,0,0.7-0.1,0.7-0.4c0-0.2-0.1-0.3-0.5-0.6l-0.6-0.4c-0.4-0.3-0.8-0.5-0.8-1.2c0-0.8,0.7-1.5,1.6-1.5
					c0.3,0,0.7,0,1.1,0.2c0,0,0,0,0,0L54,51.8c0,0,0,0,0,0c0,0,0,0,0,0c-0.3-0.1-0.5-0.2-0.9-0.2c-0.4,0-0.6,0.1-0.6,0.4
					c0,0.2,0.1,0.3,0.4,0.6l0.7,0.4c0.5,0.3,0.8,0.7,0.8,1.3C54.3,55.2,53.7,55.8,52.7,55.8z M51.3,55.4c0.2,0.1,0.8,0.3,1.4,0.3
					c1,0,1.6-0.6,1.6-1.5c0-0.5-0.2-1-0.7-1.2l-0.7-0.4c-0.3-0.2-0.5-0.3-0.5-0.6c0-0.2,0.1-0.5,0.7-0.5c0.4,0,0.7,0.1,0.9,0.2
					l0.1-0.8c-0.4-0.2-0.8-0.2-1.1-0.2c-0.9,0-1.5,0.6-1.5,1.4c0,0.7,0.3,0.9,0.8,1.1l0.6,0.4c0.4,0.2,0.5,0.4,0.5,0.6
					c0,0.3-0.2,0.5-0.7,0.5c-0.4,0-0.8-0.2-1-0.3c0,0-0.1,0-0.1-0.1L51.3,55.4z"/>
			</g>
			<g>
				<path fill="#FFFFFF" d="M47,51.7c0-0.4,0-0.6,0-0.8l0.9,0c0,0.2,0,0.2,0,0.5h0c0.2-0.4,0.5-0.6,1.2-0.6c1.1,0,1.6,1.2,1.6,2.6
					c0,1.6-0.6,2.4-1.6,2.4c-0.6,0-1-0.1-1.1-0.5h0v2.4h-1V51.7z M48.9,54.8c0.6,0,0.9-0.5,0.9-1.5c0-1.1-0.3-1.7-0.9-1.7
					c-0.6,0-0.8,0.7-0.8,1.6C48,54.2,48.3,54.8,48.9,54.8z"/>
				<path fill="#FFFFFF" d="M48,57.6h-1c0,0,0,0,0,0v-6c0-0.2,0-0.4,0-0.5c0-0.1,0-0.2,0-0.3c0,0,0,0,0,0c0,0,0,0,0,0l0,0l0.9,0
					c0,0,0,0,0,0c0,0.1,0,0.1,0,0.3c0,0,0,0.1,0,0.2c0.2-0.4,0.6-0.5,1.2-0.5c1,0,1.6,1,1.6,2.6s-0.6,2.5-1.6,2.5
					c-0.6,0-0.9-0.1-1.1-0.4L48,57.6C48.1,57.6,48.1,57.6,48,57.6z M47,57.6h1v-2.3c0,0,0,0,0,0h0c0,0,0,0,0,0
					c0.1,0.3,0.4,0.5,1.1,0.5c1,0,1.5-0.9,1.5-2.4c0-1.2-0.4-2.5-1.6-2.5c-0.7,0-1,0.2-1.2,0.6c0,0,0,0,0,0h0c0,0,0,0,0,0
					c0-0.1,0-0.2,0-0.3c0-0.1,0-0.1,0-0.2l-0.9,0c0,0.1,0,0.2,0,0.3c0,0.2,0,0.3,0,0.5V57.6z M48.9,54.9c-0.6,0-0.8-0.6-0.8-1.6
					c0-1.1,0.3-1.7,0.9-1.7c0.6,0,0.9,0.6,0.9,1.8C49.8,54.3,49.5,54.9,48.9,54.9z M48.9,51.6c-0.5,0-0.8,0.5-0.8,1.6
					c0,0.7,0.1,1.6,0.8,1.6c0.6,0,0.9-0.5,0.9-1.5C49.7,52.2,49.5,51.6,48.9,51.6z"/>
			</g>
		</g>
	</g>
	<g>
		<path fill="#FFFFFF" d="M67.2,35.7h1.1l2.9,7.4h-1.1l-0.8-2.2h-3.1L65.4,43h-1L67.2,35.7z M66.5,40H69l-1.2-3.4h0L66.5,40z"/>
		<path fill="#FFFFFF" d="M73.4,43h-0.9l-2-5.3h1l1.5,4.4h0l1.5-4.4h0.9L73.4,43z"/>
		<path fill="#FFFFFF" d="M80.3,43c-0.2,0.1-0.4,0.1-0.6,0.1c-0.5,0-0.7-0.2-0.7-0.8c-0.5,0.6-1.1,0.8-1.9,0.8c-1,0-1.8-0.4-1.8-1.5
			c0-1.2,0.9-1.5,1.8-1.6c1-0.2,1.8-0.1,1.8-0.8c0-0.8-0.6-0.9-1.2-0.9c-0.7,0-1.3,0.2-1.3,1h-0.9c0.1-1.3,1.1-1.8,2.3-1.8
			c1,0,2,0.2,2,1.5v2.7c0,0.4,0,0.6,0.3,0.6c0.1,0,0.2,0,0.3-0.1V43z M78.9,40.3c-0.3,0.2-1,0.3-1.6,0.4c-0.6,0.1-1.1,0.3-1.1,1
			c0,0.6,0.5,0.8,1,0.8c1.2,0,1.6-0.7,1.6-1.2V40.3z"/>
		<path fill="#FFFFFF" d="M81.8,36.7h-0.9v-1.1h0.9V36.7z M80.9,37.7h0.9V43h-0.9V37.7z"/>
		<path fill="#FFFFFF" d="M82.9,35.7h0.9V43h-0.9V35.7z"/>
		<path fill="#FFFFFF" d="M89.6,43c-0.2,0.1-0.3,0.1-0.6,0.1c-0.5,0-0.7-0.2-0.7-0.8c-0.5,0.6-1.1,0.8-1.9,0.8c-1,0-1.8-0.4-1.8-1.5
			c0-1.2,0.9-1.5,1.8-1.6c1-0.2,1.8-0.1,1.8-0.8c0-0.8-0.6-0.9-1.2-0.9c-0.7,0-1.3,0.2-1.3,1h-0.9c0.1-1.3,1.1-1.8,2.3-1.8
			c1,0,2,0.2,2,1.5v2.7c0,0.4,0,0.6,0.3,0.6c0.1,0,0.2,0,0.3-0.1V43z M88.2,40.3c-0.3,0.2-1,0.3-1.6,0.4c-0.6,0.1-1.1,0.3-1.1,1
			c0,0.6,0.5,0.8,1,0.8c1.2,0,1.6-0.7,1.6-1.2V40.3z"/>
		<path fill="#FFFFFF" d="M90.2,35.7h0.9v2.8h0c0.3-0.6,1-0.8,1.7-0.8c1.6,0,2.5,1.3,2.5,2.8c0,1.5-0.8,2.8-2.4,2.8
			c-0.5,0-1.3-0.2-1.7-0.8h0V43h-0.9V35.7z M92.7,38.3c-1.2,0-1.6,1-1.6,2c0,1.1,0.5,2,1.7,2c1.2,0,1.6-1,1.6-2.1
			C94.3,39.3,93.8,38.3,92.7,38.3z"/>
		<path fill="#FFFFFF" d="M95.9,35.7h0.9V43h-0.9V35.7z"/>
		<path fill="#FFFFFF" d="M102.4,41.3c-0.2,1.2-1.1,1.8-2.3,1.8c-1.7,0-2.5-1.2-2.6-2.8c0-1.6,1.1-2.8,2.5-2.8c1.9,0,2.5,1.8,2.4,3
			h-4c0,0.9,0.5,1.8,1.7,1.8c0.7,0,1.2-0.4,1.4-1H102.4z M101.6,39.8c0-0.8-0.7-1.5-1.5-1.5c-0.9,0-1.5,0.7-1.5,1.5H101.6z"/>
		<path fill="#FFFFFF" d="M108.6,37.6c1.7,0,2.6,1.2,2.6,2.8c0,1.6-0.9,2.8-2.6,2.8c-1.7,0-2.6-1.2-2.6-2.8
			C106,38.8,106.9,37.6,108.6,37.6z M108.6,42.4c0.9,0,1.7-0.7,1.7-2c0-1.3-0.7-2-1.7-2c-0.9,0-1.7,0.7-1.7,2
			C106.9,41.6,107.7,42.4,108.6,42.4z"/>
		<path fill="#FFFFFF" d="M111.9,37.7h0.8v0.8h0c0.4-0.7,1-1,1.7-1c1.4,0,1.8,0.8,1.8,1.9V43h-0.9v-3.6c0-0.6-0.4-1.1-1.1-1.1
			c-1.1,0-1.6,0.7-1.6,1.7v3h-0.9V37.7z"/>
	</g>
	<g>
		<g>
			<linearGradient id="SVGID_2_" gradientUnits="userSpaceOnUse" x1="117.4403" y1="61.3193" x2="117.4403" y2="45.9833">
				<stop  offset="0" style="stop-color:#F37422"/>
				<stop  offset="1" style="stop-color:#FAAE1B"/>
			</linearGradient>
			<path fill="url(#SVGID_2_)" d="M113.9,52.6h-1.4v-1.5h1.4v-1.7c0-2.5,1.5-3.4,3.1-3.4c0.5,0,1.2,0.1,1.8,0.4l-0.4,1.5
				c-0.4-0.2-0.8-0.2-1.2-0.2c-1,0-1.4,0.6-1.4,1.7v1.7h2.6l-0.5,1.5h-2.1v8.7h-1.9V52.6z M119.9,47.7c0-0.7,0.5-1.2,1.2-1.2
				c0.7,0,1.3,0.5,1.3,1.2c0,0.7-0.5,1.2-1.3,1.2C120.4,49,119.9,48.4,119.9,47.7z M120.2,51.1h1.9v10.2h-1.9V51.1z"/>
			<linearGradient id="SVGID_3_" gradientUnits="userSpaceOnUse" x1="126.9162" y1="61.3193" x2="126.9162" y2="50.8132">
				<stop  offset="0" style="stop-color:#F37422"/>
				<stop  offset="1" style="stop-color:#FAAE1B"/>
			</linearGradient>
			<path fill="url(#SVGID_3_)" d="M124,51.1h1.6l0.2,1.3c1.1-1.1,1.9-1.5,2.9-1.5c0.4,0,0.9,0.1,1.2,0.3l-0.7,1.7
				c-0.3-0.2-0.6-0.3-1-0.3c-0.7,0-1.4,0.4-2.4,1.3v7.5H124V51.1z"/>
			<linearGradient id="SVGID_4_" gradientUnits="userSpaceOnUse" x1="133.6632" y1="61.5352" x2="133.6632" y2="50.8132">
				<stop  offset="0" style="stop-color:#F37422"/>
				<stop  offset="1" style="stop-color:#FAAE1B"/>
			</linearGradient>
			<path fill="url(#SVGID_4_)" d="M129.4,56.1c0-3.1,1.7-5.3,4.3-5.3c2.7,0,4.2,2.1,4.2,5.3v0.5h-6.6c0,1.9,1.2,3.4,3.2,3.4
				c1,0,1.8-0.3,2.5-0.7l0.6,1.3c-1,0.6-2.2,0.9-3.4,0.9C130.9,61.5,129.4,59,129.4,56.1z M136,55.2c0-1.4-0.7-2.9-2.3-2.9
				c-1.5,0-2.4,1.3-2.4,2.9H136z"/>
		</g>
		<g>
			<path fill="#FFFFFF" d="M64.3,46h1.9v8.8h0l3.7-3.7h2.3l-4.4,4.4l4.8,5.9h-2.3l-4.1-5.1h0v5.1h-1.9V46z"/>
			<path fill="#FFFFFF" d="M72.9,47.7c0-0.7,0.5-1.2,1.2-1.2c0.7,0,1.3,0.5,1.3,1.2c0,0.7-0.5,1.2-1.3,1.2
				C73.4,49,72.9,48.4,72.9,47.7z M73.2,51.1h1.9v10.2h-1.9V51.1z"/>
			<path fill="#FFFFFF" d="M76.6,51.1h1.6l0.2,1.3c1.1-0.9,2.3-1.5,3.6-1.5c1.6,0,3.1,1,3.1,3.6v6.9h-1.9v-6.2
				c0-1.5-0.3-2.6-1.8-2.6c-1,0-2,0.6-2.9,1.4v7.4h-1.9V51.1z"/>
			<path fill="#FFFFFF" d="M85.8,56.3c0-3.3,2.4-5.5,5.4-5.5c0.5,0,1.1,0,1.6,0.2v-5h1.9v14.8c-0.8,0.4-2.1,0.7-3.4,0.7
				C88.2,61.5,85.8,59.7,85.8,56.3z M92.8,59.7v-7c-0.5-0.2-0.8-0.2-1.5-0.2c-2,0-3.6,1.4-3.6,3.9c0,2.3,1.4,3.6,3.6,3.6
				C91.8,59.9,92.4,59.8,92.8,59.7z"/>
			<path fill="#FFFFFF" d="M96.2,46h1.9v12.8c0,0.8,0.2,1,0.8,1c0.2,0,0.5-0.1,0.6-0.1l0.4,1.5c-0.5,0.2-1.1,0.3-1.6,0.3
				c-1.4,0-2.1-0.8-2.1-2.1V46z"/>
			<path fill="#FFFFFF" d="M100,56.1c0-3.1,1.7-5.3,4.3-5.3c2.7,0,4.2,2.1,4.2,5.3v0.5h-6.6c0,1.9,1.2,3.4,3.2,3.4
				c1,0,1.8-0.3,2.5-0.7l0.6,1.3c-1,0.6-2.2,0.9-3.4,0.9C101.5,61.5,100,59,100,56.1z M106.6,55.2c0-1.4-0.7-2.9-2.3-2.9
				c-1.5,0-2.4,1.3-2.4,2.9H106.6z"/>
		</g>
	</g>
</g>
</svg>
